<svg xmlns="http://www.w3.org/2000/svg" viewBox="0 0 100 88.883">
  <title>booking</title>
  <path d="M88.442,11.167a8.335,8.335,0,0,0-7.884-5.609H19.442a8.333,8.333,0,0,0-7.892,5.609L.608,42.667A11.541,11.541,0,0,0,0,46.333V86.108a8.334,8.334,0,1,0,16.667,0V83.333H83.333v2.775a8.334,8.334,0,1,0,16.667,0V46.333a11.808,11.808,0,0,0-.608-3.666Zm-69,55.5a8.334,8.334,0,1,1,8.333-8.334A8.334,8.334,0,0,1,19.442,66.667Zm61.108,0a8.329,8.329,0,1,1,.008,0ZM11.108,38.892l7.059-21.225a5.632,5.632,0,0,1,5.275-3.775H76.55a5.633,5.633,0,0,1,5.275,3.775l7.067,21.225Z" transform="translate(0 -5.558)" fill="#de5b2d"/>
</svg>
