<svg xmlns="http://www.w3.org/2000/svg" xmlns:xlink="http://www.w3.org/1999/xlink" viewBox="0 0 100 100">
  <defs>
    <style>
      .a {
        fill: url(#a);
      }
    </style>
    <linearGradient id="a" data-name="Unbenannter Verlauf 2" x1="9.027" y1="90.874" x2="9.027" y2="88.097" gradientTransform="matrix(36, 0, 0, -36, -274.98, 3271.48)" gradientUnits="userSpaceOnUse">
      <stop offset="0" stop-color="#535967"/>
      <stop offset="1" stop-color="#292c33"/>
    </linearGradient>
  </defs>
  <title>dislike</title>
  <g>
    <path class="a" d="M50,0A50,50,0,1,1,0,50,50,50,0,0,1,50,0Z"/>
    <path class="b" fill="#f9f9f9" d="M47.875,70.165l12.4-12.4a4.473,4.473,0,0,0,1.3-3.156V32.254A4.49,4.49,0,0,0,57.1,27.779H36.944a4.509,4.509,0,0,0-4.116,2.708l-7.3,17.031a6.724,6.724,0,0,0,6.178,9.355H44.364l-2.125,10.25a3.375,3.375,0,0,0,.917,3.056,3.333,3.333,0,0,0,4.714-.014l.008-.008Zm22.65-42.386a4.49,4.49,0,0,0-4.475,4.475V50.159a4.475,4.475,0,1,0,8.95,0v-17.9A4.489,4.489,0,0,0,70.525,27.779Z"/>
  </g>
</svg>
