<svg xmlns="http://www.w3.org/2000/svg" viewBox="0 0 91.665 100">
  <title>zone</title>
  <g>
    <g>
      <path d="M28.591,76.748a3.2,3.2,0,0,1-2.476-1.165c-6.524-7.852-21.7-27.666-21.7-42.058a24.154,24.154,0,0,1,48.308,0c0,14.3-15.149,34.176-21.662,42.058a3.209,3.209,0,0,1-2.472,1.165ZM24.836,43.983a3.741,3.741,0,0,0,3.632,3.638l.106,0a3.717,3.717,0,0,0,3.734-3.633V37.262h7.325L39.6,37.23a3.737,3.737,0,0,0-.476-7.444l-6.82,0s0-6.853,0-6.923a3.717,3.717,0,0,0-3.734-3.633l-.106,0a3.737,3.737,0,0,0-3.631,3.839v6.718H17.911a3.737,3.737,0,0,0,.1,7.472h6.822Z" transform="translate(-4.168 0)" fill="#de5b2d"/>
      <path d="M28.571,9.621h0a23.969,23.969,0,0,1,23.9,23.9c0,14.219-15.108,34.038-21.6,41.9a2.9,2.9,0,0,1-.4.395,2.959,2.959,0,0,1-4.168-.4C19.8,67.593,4.668,47.837,4.668,33.525a23.968,23.968,0,0,1,23.9-23.9M24.584,29.54H18.016l-.112,0a3.987,3.987,0,0,0,.11,7.972h6.573V44a3.989,3.989,0,0,0,3.874,3.874l.113,0a3.969,3.969,0,0,0,3.984-3.89V37.512h6.471l1.2,0-.12-.121a3.988,3.988,0,0,0-.985-7.852l-.1,0H32.555V23.08q0-.111,0-.222a3.966,3.966,0,0,0-3.984-3.876l-.113,0a3.988,3.988,0,0,0-3.874,4.083V29.54M28.571,9.121a24.431,24.431,0,0,0-24.4,24.4c0,14.536,15.409,34.582,21.754,42.217a3.456,3.456,0,0,0,5.333,0c6.31-7.635,21.719-27.681,21.719-42.217a24.431,24.431,0,0,0-24.4-24.4ZM18.113,30.04h6.971V23.067a3.486,3.486,0,0,1,3.388-3.583l.1,0a3.487,3.487,0,0,1,3.484,3.39q0,.1,0,.2v6.971h6.971l.1,0a3.487,3.487,0,0,1,.1,6.973h-.195l0,0H32.058v6.971a3.487,3.487,0,0,1-3.484,3.39l-.1,0a3.486,3.486,0,0,1-3.388-3.388V37.012H18.014a3.487,3.487,0,0,1-.1-6.973h.2Z" transform="translate(-4.168 0)" fill="#fff"/>
    </g>
    <g>
      <path d="M71.448,67.627a3.205,3.205,0,0,1-2.475-1.165C62.449,58.61,47.276,38.8,47.276,24.4a24.153,24.153,0,1,1,48.306,0c0,14.3-15.148,34.176-21.661,42.058a3.281,3.281,0,0,1-.429.429,3.218,3.218,0,0,1-2.043.736ZM67.695,34.861A3.741,3.741,0,0,0,71.326,38.5h.106a3.717,3.717,0,0,0,3.734-3.633V28.14h7.41l-.049-.041a3.737,3.737,0,0,0-.544-7.434l-6.82,0s0-6.854,0-6.924a3.717,3.717,0,0,0-3.734-3.632h-.106a3.743,3.743,0,0,0-3.631,3.84v6.717H60.769a3.737,3.737,0,0,0,.1,7.473l6.823,0Z" transform="translate(-4.168 0)" fill="#de5b2d"/>
      <path d="M71.43.5h0a23.968,23.968,0,0,1,23.9,23.9c0,14.22-15.108,34.039-21.6,41.9a2.958,2.958,0,0,1-4.563,0c-6.507-7.829-21.639-27.585-21.639-41.9A23.969,23.969,0,0,1,71.43.5M67.442,20.419H60.763a3.987,3.987,0,0,0,.109,7.973l.1,0h6.474v6.485a3.989,3.989,0,0,0,3.874,3.875h.113a3.969,3.969,0,0,0,3.984-3.89V28.39h6.471l1.2,0-.122-.122a3.988,3.988,0,0,0-.986-7.851H75.413V13.959q0-.111,0-.222A3.965,3.965,0,0,0,71.43,9.861h-.113a3.99,3.99,0,0,0-3.875,4.083v6.474M71.429,0a24.43,24.43,0,0,0-24.4,24.4c0,14.536,15.409,34.582,21.754,42.218a3.46,3.46,0,0,0,5.333,0c6.31-7.636,21.719-27.682,21.719-42.218A24.43,24.43,0,0,0,71.429,0ZM60.971,20.919h6.971V13.945a3.487,3.487,0,0,1,3.389-3.583h.1a3.486,3.486,0,0,1,3.483,3.39c0,.064,0,.129,0,.194v6.971h7.071a3.487,3.487,0,0,1,.095,6.973h-.194l0,0H74.916v6.971a3.487,3.487,0,0,1-3.484,3.39h-.1a3.487,3.487,0,0,1-3.388-3.389V27.89H60.971l-.1,0a3.487,3.487,0,0,1-.1-6.973h.195Z" transform="translate(-4.168 0)" fill="#fff"/>
    </g>
    <g>
      <path d="M54.1,99.75a3.2,3.2,0,0,1-2.476-1.165c-6.524-7.852-21.7-27.666-21.7-42.059a24.154,24.154,0,0,1,48.307,0c0,14.3-15.149,34.177-21.662,42.059a3.177,3.177,0,0,1-.43.43,3.216,3.216,0,0,1-2.042.735ZM50.35,66.985a3.741,3.741,0,0,0,3.631,3.638h.107a3.716,3.716,0,0,0,3.733-3.632V60.264h7.325l-.032-.033a3.736,3.736,0,0,0-.475-7.442H57.818s0-6.853,0-6.923a3.716,3.716,0,0,0-3.733-3.633l-.106,0a3.737,3.737,0,0,0-3.631,3.839v6.717h-6.92a3.737,3.737,0,0,0,.1,7.473H50.35Z" transform="translate(-4.168 0)" fill="#de5b2d"/>
      <path d="M54.085,32.623h0a23.969,23.969,0,0,1,23.9,23.9c0,14.219-15.109,34.038-21.6,41.9a2.9,2.9,0,0,1-.4.395,2.959,2.959,0,0,1-4.168-.4c-6.506-7.83-21.639-27.586-21.639-41.9a23.969,23.969,0,0,1,23.9-23.9M50.1,52.542H43.529l-.111,0a3.987,3.987,0,0,0,.109,7.972H50.1V67a3.988,3.988,0,0,0,3.874,3.874l.113,0a3.969,3.969,0,0,0,3.984-3.89V60.514h6.471l1.2,0-.122-.122a3.988,3.988,0,0,0-.986-7.851l-.1,0H58.069V46.082q0-.111,0-.222a3.967,3.967,0,0,0-3.984-3.876l-.113,0A3.988,3.988,0,0,0,50.1,46.069v6.473m3.987-20.419a24.431,24.431,0,0,0-24.4,24.4c0,14.536,15.41,34.582,21.754,42.217a3.457,3.457,0,0,0,5.334,0c6.31-7.635,21.719-27.681,21.719-42.217a24.431,24.431,0,0,0-24.4-24.4ZM43.626,53.042H50.6V46.069a3.486,3.486,0,0,1,3.388-3.583l.1,0a3.487,3.487,0,0,1,3.484,3.39q0,.1,0,.2V53.04H64.54l.1,0a3.487,3.487,0,0,1,.095,6.973H64.54l0,0H57.572v6.971a3.488,3.488,0,0,1-3.484,3.39l-.1,0A3.487,3.487,0,0,1,50.6,66.985V60.014H43.527a3.487,3.487,0,0,1-.095-6.973h.194Z" transform="translate(-4.168 0)" fill="#fff"/>
    </g>
  </g>
</svg>
