<svg xmlns="http://www.w3.org/2000/svg" width="100" height="100" viewBox="0 0 100 100">
  <path id="Auto" d="M91.444,11.313A8.438,8.438,0,0,0,83.556,5H22.444c-3.667,0-6.722,2.625-7.889,6.313L3.611,46.75A14.456,14.456,0,0,0,3,50.875v44.75C3,100.813,6.722,105,11.333,105s8.333-4.187,8.333-9.375V92.5H86.333v3.125c0,5.125,3.722,9.375,8.333,9.375,4.556,0,8.333-4.187,8.333-9.375V50.875a14.791,14.791,0,0,0-.611-4.125Zm-69,62.438c-4.611,0-8.333-4.187-8.333-9.375S17.833,55,22.444,55s8.333,4.188,8.333,9.375S27.056,73.75,22.444,73.75Zm61.111,0c-4.611,0-8.333-4.187-8.333-9.375S78.944,55,83.556,55s8.333,4.188,8.333,9.375S88.167,73.75,83.556,73.75ZM14.111,42.5l7.056-23.875a5.725,5.725,0,0,1,5.278-4.25H79.556a5.725,5.725,0,0,1,5.278,4.25L91.889,42.5Z" transform="translate(-3 -5)"/>
</svg>
