<svg xmlns="http://www.w3.org/2000/svg" width="14" height="12.444" viewBox="0 0 14 12.444">
  <path id="BAXI" d="M15.382,5.786A1.162,1.162,0,0,0,14.278,5H5.722a1.17,1.17,0,0,0-1.1.786L3.086,10.2A1.615,1.615,0,0,0,3,10.709v5.569a1.167,1.167,0,0,0,2.333,0v-.389h9.333v.389a1.167,1.167,0,0,0,2.333,0V10.709a1.652,1.652,0,0,0-.086-.513Zm-9.66,7.77a1.167,1.167,0,1,1,1.167-1.167A1.165,1.165,0,0,1,5.722,13.556Zm8.556,0a1.167,1.167,0,1,1,1.167-1.167A1.165,1.165,0,0,1,14.278,13.556ZM4.556,9.667,5.543,6.7a.788.788,0,0,1,.739-.529h7.436a.788.788,0,0,1,.739.529l.988,2.971Z" transform="translate(-3 -5)" fill="#fff"/>
</svg>
