<svg xmlns="http://www.w3.org/2000/svg" width="100" height="100" viewBox="0 0 100 100">
  <path id="Einstellungen" d="M90.474,56.9a37.922,37.922,0,0,0,.36-4.9,37.923,37.923,0,0,0-.36-4.9l10.846-8.25a2.476,2.476,0,0,0,.617-3.2L91.656,18.35a2.619,2.619,0,0,0-3.136-1.1l-12.8,5a37.822,37.822,0,0,0-8.687-4.9L65.081,4.1A2.486,2.486,0,0,0,62.563,2H42a2.486,2.486,0,0,0-2.519,2.1L37.529,17.35a39.773,39.773,0,0,0-8.687,4.9l-12.8-5a2.54,2.54,0,0,0-3.136,1.1L2.627,35.65a2.421,2.421,0,0,0,.617,3.2L14.09,47.1a38.59,38.59,0,0,0-.36,4.9,38.59,38.59,0,0,0,.36,4.9L3.244,65.15a2.476,2.476,0,0,0-.617,3.2l10.281,17.3a2.619,2.619,0,0,0,3.136,1.1l12.8-5a37.821,37.821,0,0,0,8.687,4.9L39.483,99.9A2.486,2.486,0,0,0,42,102H62.563a2.486,2.486,0,0,0,2.519-2.1l1.953-13.25a39.772,39.772,0,0,0,8.687-4.9l12.8,5a2.54,2.54,0,0,0,3.136-1.1l10.281-17.3a2.476,2.476,0,0,0-.617-3.2ZM52.282,69.5A17.77,17.77,0,0,1,34.291,52a18,18,0,0,1,35.982,0A17.77,17.77,0,0,1,52.282,69.5Z" transform="translate(-2.271 -2)"/>
</svg>
