<svg xmlns="http://www.w3.org/2000/svg" width="18.367" height="20" viewBox="0 0 18.367 20">
  <path id="GebuchteFahrten" d="M21.367,2.21a.479.479,0,0,0-.357.153l-.806.806a.505.505,0,0,1-.724,0l-.806-.806a.505.505,0,0,0-.724,0l-.806.806a.505.505,0,0,1-.724,0l-.806-.806a.505.505,0,0,0-.724,0l-.806.806a.505.505,0,0,1-.724,0l-.806-.806a.505.505,0,0,0-.724,0l-.806.806a.505.505,0,0,1-.724,0L9.48,2.353a.505.505,0,0,0-.724,0l-.806.816a.505.505,0,0,1-.724,0l-.806-.816a.505.505,0,0,0-.724,0l-.806.816a.505.505,0,0,1-.724,0l-.806-.816A.51.51,0,0,0,3,2.21V22.2a.479.479,0,0,0,.357-.153l.806-.806a.505.505,0,0,1,.724,0l.806.806a.505.505,0,0,0,.724,0l.806-.806a.505.505,0,0,1,.724,0l.806.806a.505.505,0,0,0,.724,0l.806-.806a.505.505,0,0,1,.724,0l.806.806a.505.505,0,0,0,.724,0l.806-.806a.505.505,0,0,1,.724,0l.806.806a.505.505,0,0,0,.724,0l.806-.806a.505.505,0,0,1,.724,0l.806.806a.505.505,0,0,0,.724,0l.806-.806a.505.505,0,0,1,.724,0l.806.806a.513.513,0,0,0,.357.153V2.21ZM17.286,17.3H7.082a1.02,1.02,0,1,1,0-2.041h10.2a1.02,1.02,0,1,1,0,2.041Zm0-4.082H7.082a1.02,1.02,0,1,1,0-2.041h10.2a1.02,1.02,0,1,1,0,2.041Zm0-4.082H7.082a1.02,1.02,0,0,1,0-2.041h10.2a1.02,1.02,0,1,1,0,2.041Z" transform="translate(-3 -2.2)"/>
</svg>
