<svg xmlns="http://www.w3.org/2000/svg" xmlns:xlink="http://www.w3.org/1999/xlink" viewBox="0 0 100 100">
  <defs>
    <linearGradient id="a" data-name="Unbenannter Verlauf 3" x1="9.027" y1="90.874" x2="9.027" y2="88.097" gradientTransform="matrix(36, 0, 0, -36, -274.98, 3271.48)" gradientUnits="userSpaceOnUse">
      <stop offset="0" stop-color="#535967"/>
      <stop offset="1" stop-color="#292c33"/>
    </linearGradient>
    <linearGradient id="b" data-name="Unbenannter Verlauf 2" x1="10.533" y1="88.672" x2="10.533" y2="85.894" gradientTransform="matrix(30, 0, 0, -30, -265.98, 2668.48)" gradientUnits="userSpaceOnUse">
      <stop offset="0" stop-color="#fff"/>
      <stop offset="0.365" stop-color="#e6e6e6"/>
      <stop offset="1" stop-color="#d9d9d9"/>
    </linearGradient>
  </defs>
  <title>Hilfe</title>
  <path d="M50,0A50,50,0,1,1,0,50,50,50,0,0,1,50,0Z" style="fill: url(#a)"/>
  <path d="M50,8.333A41.667,41.667,0,1,0,91.667,50,41.667,41.667,0,0,0,50,8.333Zm4.167,70.834H45.833V70.833h8.334Zm8.611-32.292-3.75,3.833a14.6,14.6,0,0,0-4.334,7.042,19.088,19.088,0,0,0-.527,4.75H45.833V60.417a16.874,16.874,0,0,1,.917-5.459,16.666,16.666,0,0,1,3.958-6.333l5.167-5.25a8.178,8.178,0,0,0,2.292-7.5A8.3,8.3,0,0,0,52.375,29.5,8.4,8.4,0,0,0,42.1,34.792,3.681,3.681,0,0,1,38.681,37.5h-1.25a3.61,3.61,0,0,1-3.417-4.667A16.7,16.7,0,0,1,47.472,21.042a16.941,16.941,0,0,1,16.125,7.5A13.78,13.78,0,0,1,62.778,46.875Z" style="fill: url(#b)"/>
</svg>
