<svg xmlns="http://www.w3.org/2000/svg" width="100" height="100" viewBox="0 0 100 100">
  <path id="Hilfe_Klein" d="M52,2a50,50,0,1,0,50,50A50.018,50.018,0,0,0,52,2Zm0,90A40,40,0,1,1,92,52,40.053,40.053,0,0,1,52,92ZM47,72H57V82H47Zm8.05-49.8A20.01,20.01,0,0,0,32.9,36.15,4.534,4.534,0,0,0,37.25,42h1a4.813,4.813,0,0,0,4.4-3.35,10.01,10.01,0,0,1,11.5-6.4A10.116,10.116,0,0,1,62,42.75c-.5,6.7-8.1,8.15-12.25,14.4,0,.05-.05.05-.05.1-.05.1-.1.15-.15.25A16.656,16.656,0,0,0,48.3,60c-.05.15-.15.25-.2.4a3.185,3.185,0,0,0-.1.35A18.587,18.587,0,0,0,47,67H57a10.622,10.622,0,0,1,1.4-5.35c.1-.15.15-.3.25-.45a13.79,13.79,0,0,1,1.4-1.95c.05-.05.1-.15.15-.2a17.571,17.571,0,0,1,1.65-1.7c4.8-4.55,11.3-8.25,9.95-17.8-1.2-8.7-8.05-16.05-16.75-17.35Z" transform="translate(-2 -2)" fill="#95c11f"/>
</svg>
