<?xml version="1.0" encoding="utf-8"?>
<!-- Generator: Adobe Illustrator 23.0.6, SVG Export Plug-In . SVG Version: 6.00 Build 0)  -->
<svg version="1.1" xmlns="http://www.w3.org/2000/svg" xmlns:xlink="http://www.w3.org/1999/xlink" x="0px" y="0px"
	 viewBox="0 0 100 100" style="enable-background:new 0 0 100 100;" xml:space="preserve">
<style type="text/css">
	.st0{display:none;}
	.st1{display:inline;fill:url(#SVGID_1_);}
	.st2{display:inline;fill:url(#SVGID_2_);}
	.st3{display:inline;}
	.st4{fill:url(#Kontur-2_2_);}
	.st5{display:inline;fill:url(#Kontur-3_1_);}
	.st6{display:inline;fill:url(#Schliessen_1_);}
	.st7{fill:url(#Kontur-2_3_);}
	.st8{fill:url(#Pfad_53_1_);}
</style>
<g id="Ebene_1" class="st0">
	<title>Konto</title>
	
		<linearGradient id="SVGID_1_" gradientUnits="userSpaceOnUse" x1="9.0272" y1="9.1256" x2="9.0272" y2="11.9033" gradientTransform="matrix(36 0 0 36 -274.98 -328.52)">
		<stop  offset="0" style="stop-color:#535967"/>
		<stop  offset="1" style="stop-color:#292C33"/>
	</linearGradient>
	<circle class="st1" cx="50" cy="50" r="50"/>
	
		<linearGradient id="SVGID_2_" gradientUnits="userSpaceOnUse" x1="10.5327" y1="11.3284" x2="10.5327" y2="14.1062" gradientTransform="matrix(30 0 0 30 -265.98 -331.52)">
		<stop  offset="0" style="stop-color:#FFFFFF"/>
		<stop  offset="0.365" style="stop-color:#E6E6E6"/>
		<stop  offset="1" style="stop-color:#D9D9D9"/>
	</linearGradient>
	<path class="st2" d="M50,8.3C27,8.3,8.3,27,8.3,50S27,91.7,50,91.7S91.7,73,91.7,50l0,0C91.7,27,73,8.3,50,8.3z M50,20.8
		c6.9,0,12.5,5.6,12.5,12.5S56.9,45.8,50,45.8s-12.5-5.6-12.5-12.5C37.5,26.4,43.1,20.8,50,20.8L50,20.8z M50,80
		c-10.1,0-19.4-5-25-13.4c0.1-8.3,16.7-12.8,25-12.8s24.9,4.5,25,12.8C69.4,75,60.1,80,50,80z"/>
</g>
<g id="Ebene_2" class="st0">
	<g transform="matrix(1, 0, 0, 1, 321.5, 65.5)" class="st3">
		
			<linearGradient id="Kontur-2_2_" gradientUnits="userSpaceOnUse" x1="-309.4175" y1="19.27" x2="-309.4175" y2="15.1033" gradientTransform="matrix(24 0 0 -24 7154.52 396.98)">
			<stop  offset="0" style="stop-color:#525866"/>
			<stop  offset="1" style="stop-color:#292C33"/>
		</linearGradient>
		<circle id="Kontur-2" class="st4" cx="-271.5" cy="-15.5" r="50"/>
	</g>
	
		<linearGradient id="Kontur-3_1_" gradientUnits="userSpaceOnUse" x1="13.7371" y1="82.261" x2="13.7371" y2="78.3086" gradientTransform="matrix(21 0 0 -21 -238.48 1735.98)">
		<stop  offset="0" style="stop-color:#FFFFFF"/>
		<stop  offset="0.365" style="stop-color:#E6E6E6"/>
		<stop  offset="1" style="stop-color:#D9D9D9"/>
	</linearGradient>
	<path id="Kontur-3" class="st5" d="M50,8.5c22.9,0,41.5,18.6,41.5,41.5S72.9,91.5,50,91.5S8.5,72.9,8.5,50S27.1,8.5,50,8.5z"/>
	
		<linearGradient id="Schliessen_1_" gradientUnits="userSpaceOnUse" x1="26.9764" y1="63.1533" x2="26.9764" y2="58.9866" gradientTransform="matrix(10.4992 0 0 -10.5002 -233.2296 691.2466)">
		<stop  offset="0" style="stop-color:#525866"/>
		<stop  offset="1" style="stop-color:#292C33"/>
	</linearGradient>
	<path id="Schliessen" class="st6" d="M70.9,29.1c-1.3-1.3-3.4-1.3-4.7,0c0,0,0,0,0,0L50,45.3L33.8,29.1c-1.3-1.3-3.4-1.3-4.7,0
		c-1.3,1.3-1.3,3.4,0,4.7L45.3,50L29.1,66.2c-1.3,1.3-1.3,3.4,0,4.7c1.3,1.3,3.4,1.3,4.7,0L50,54.7l16.2,16.2c1.3,1.3,3.4,1.3,4.7,0
		c1.3-1.3,1.3-3.4,0-4.7L54.7,50l16.2-16.2C72.2,32.5,72.2,30.4,70.9,29.1z"/>
</g>
<g id="Ebene_3">
	<g id="Icon" transform="translate(-325.5 -69.5)">
		<g transform="matrix(1, 0, 0, 1, 325.5, 69.5)">
			
				<linearGradient id="Kontur-2_3_" gradientUnits="userSpaceOnUse" x1="12.0825" y1="84.77" x2="12.0825" y2="80.6033" gradientTransform="matrix(24 0 0 -24 -239.98 2034.48)">
				<stop  offset="0" style="stop-color:#525866"/>
				<stop  offset="1" style="stop-color:#292C33"/>
			</linearGradient>
			<circle id="Kontur-2_1_" class="st7" cx="50" cy="50" r="50"/>
		</g>
		
			<linearGradient id="Pfad_53_1_" gradientUnits="userSpaceOnUse" x1="339.899" y1="150.9073" x2="339.899" y2="146.7407" gradientTransform="matrix(20 0 0 -20 -6422.48 3095.98)">
			<stop  offset="0" style="stop-color:#FFFFFF"/>
			<stop  offset="0.365" style="stop-color:#E6E6E6"/>
			<stop  offset="1" style="stop-color:#D9D9D9"/>
		</linearGradient>
		<path id="Pfad_53" class="st8" d="M375.5,77.8c-23,0-41.6,18.7-41.6,41.7s18.7,41.6,41.7,41.6c23,0,41.6-18.7,41.6-41.7
			C417.2,96.5,398.5,77.8,375.5,77.8C375.5,77.8,375.5,77.8,375.5,77.8z M388.9,142l-13.4-8.1l-13.4,8.1c-1,0.6-2.3,0.3-2.9-0.7
			c-0.3-0.5-0.4-1-0.3-1.6l3.5-15.3l-11.8-10.2c-0.9-0.8-0.9-2.1-0.2-3c0.4-0.4,0.8-0.6,1.4-0.7l15.6-1.3l6.1-14.4
			c0.5-1.1,1.7-1.6,2.7-1.1c0.5,0.2,0.9,0.6,1.1,1.1l6.1,14.3l15.6,1.3c1.1,0.1,2,1.1,1.9,2.3c0,0.5-0.3,1.1-0.7,1.4l-11.8,10.2
			l3.5,15.3c0.2,1.1-0.5,2.2-1.6,2.5C389.9,142.3,389.4,142.2,388.9,142z"/>
	</g>
</g>
</svg>
