<svg xmlns="http://www.w3.org/2000/svg" xmlns:xlink="http://www.w3.org/1999/xlink" viewBox="0 0 100 100">
  <defs>
    <linearGradient id="a" data-name="Unbenannter Verlauf 2" x1="9.027" y1="90.874" x2="9.027" y2="88.097" gradientTransform="matrix(36, 0, 0, -36, -274.98, 3271.48)" gradientUnits="userSpaceOnUse">
      <stop offset="0" stop-color="#535967"/>
      <stop offset="1" stop-color="#292c33"/>
    </linearGradient>
  </defs>
  <title>Like</title>
  <path d="M50,0A50,50,0,1,1,0,50,50,50,0,0,1,50,0Z" style="fill: url(#a)"/>
  <path d="M52.122,29.3l-12.4,12.4a4.47,4.47,0,0,0-1.3,3.155V67.21A4.489,4.489,0,0,0,42.9,71.685H63.052a4.509,4.509,0,0,0,4.117-2.709l7.294-17.03a6.725,6.725,0,0,0-6.177-9.356H55.633l2.125-10.25a3.375,3.375,0,0,0-.917-3.055,3.333,3.333,0,0,0-4.714.014l-.008.008ZM29.472,71.685a4.49,4.49,0,0,0,4.475-4.475V49.3a4.475,4.475,0,0,0-8.95,0v17.9A4.489,4.489,0,0,0,29.472,71.685Z" transform="translate(0.001)" style="fill: #f9f9f9"/>
</svg>
