<svg xmlns="http://www.w3.org/2000/svg" width="77.778" height="100" viewBox="0 0 77.778 100">
  <path id="Loeschen" d="M10.556,91.889A11.144,11.144,0,0,0,21.667,103H66.111A11.144,11.144,0,0,0,77.222,91.889V36.333A11.144,11.144,0,0,0,66.111,25.222H21.667A11.144,11.144,0,0,0,10.556,36.333ZM77.222,8.556H63.333L59.389,4.611A5.6,5.6,0,0,0,55.5,3H32.278a5.6,5.6,0,0,0-3.889,1.611L24.444,8.556H10.556a5.556,5.556,0,1,0,0,11.111H77.222a5.556,5.556,0,0,0,0-11.111Z" transform="translate(-5 -3)" fill="#f75454"/>
</svg>
