<svg xmlns="http://www.w3.org/2000/svg" width="16" height="12" viewBox="0 0 16 12">
  <path id="Pfad_35" data-name="Pfad 35" d="M14.667,3H1.333A1.337,1.337,0,0,0,0,4.333v9.333A1.337,1.337,0,0,0,1.333,15H14.667a1.332,1.332,0,0,0,1.327-1.333L16,4.333A1.337,1.337,0,0,0,14.667,3ZM5.333,5a2,2,0,1,1-2,2A2,2,0,0,1,5.333,5Zm4,8h-8v-.667c0-1.333,2.667-2.067,4-2.067s4,.733,4,2.067ZM11.9,10.333h.927a.328.328,0,0,1,.267.133l.733.967a.326.326,0,0,1-.033.433l-.907.907a.337.337,0,0,1-.447.027,5.038,5.038,0,0,1-1.587-2.473A4.832,4.832,0,0,1,10.667,9a4.917,4.917,0,0,1,.187-1.333A5.008,5.008,0,0,1,12.44,5.193a.329.329,0,0,1,.447.027l.907.907a.328.328,0,0,1,.033.433l-.733.967a.32.32,0,0,1-.267.133H11.9a3.945,3.945,0,0,0,0,2.673Z" transform="translate(0 -3)" fill="#fff"/>
</svg>
