<svg xmlns="http://www.w3.org/2000/svg" width="100" height="100" viewBox="0 0 100 100">
  <path id="Pfad_65" data-name="Pfad 65" d="M91.889,12H86.333V7A5.586,5.586,0,0,0,75.222,7v5H30.778V7a5.315,5.315,0,0,0-5.556-5,5.315,5.315,0,0,0-5.556,5v5H14.111C7.944,12,3.056,16.5,3.056,22L3,92c0,5.5,4.944,10,11.111,10H91.889C98,102,103,97.5,103,92V22C103,16.5,98,12,91.889,12Zm0,75a5.315,5.315,0,0,1-5.556,5H19.667a5.315,5.315,0,0,1-5.556-5V37H91.889ZM25.222,47H36.333V57H25.222Zm22.222,0H58.556V57H47.444Zm22.222,0H80.778V57H69.667Z" transform="translate(-3 -2)"/>
</svg>
