<svg xmlns="http://www.w3.org/2000/svg" viewBox="0 0 71.905 100">
  <title>Standort</title>
  <path d="M50,0A35.992,35.992,0,0,0,14.048,35.952c0,21.416,22.7,50.949,32.049,62.2a5.1,5.1,0,0,0,7.858,0c9.3-11.249,32-40.782,32-62.2A35.992,35.992,0,0,0,50,0ZM65.408,41.09H55.137V51.36a5.137,5.137,0,0,1-10.27,0V41.09H34.592a5.137,5.137,0,0,1-.286-10.271c.1,0,.191,0,.286,0H44.863V20.545a5.137,5.137,0,1,1,10.27-.287c0,.1,0,.191,0,.287v10.27H65.4a5.137,5.137,0,0,1,.286,10.271c-.095,0-.191,0-.286,0Z" transform="translate(-14.048)" fill="#95c121"/>
</svg>
