<svg xmlns="http://www.w3.org/2000/svg" width="11.721" height="12.393" viewBox="0 0 11.721 12.393">
  <path id="Umstiege" d="M5.737,5.569H12.4V6.762A.33.33,0,0,0,12.97,7l1.86-1.86a.33.33,0,0,0,0-.473L12.97,2.8a.333.333,0,0,0-.567.24V4.235H5.07A.669.669,0,0,0,4.4,4.9V7.569a.667.667,0,0,0,1.333,0ZM12.4,12.236H5.737V11.042a.33.33,0,0,0-.567-.233l-1.86,1.86a.33.33,0,0,0,0,.473L5.17,15a.333.333,0,0,0,.567-.24V13.569H13.07a.669.669,0,0,0,.667-.667V10.235a.667.667,0,0,0-1.333,0Z" transform="translate(-3.21 -2.706)"/>
</svg>
